<?xml version="1.0" encoding="utf-8" standalone="no"?>
<!DOCTYPE svg PUBLIC "-//W3C//DTD SVG 1.1//EN"
  "http://www.w3.org/Graphics/SVG/1.1/DTD/svg11.dtd">
<svg xmlns:xlink="http://www.w3.org/1999/xlink" width="326.016437pt" height="425.204837pt" viewBox="0 0 326.016437 425.204837" xmlns="http://www.w3.org/2000/svg" version="1.1">
 <metadata>
  <rdf:RDF xmlns:dc="http://purl.org/dc/elements/1.1/" xmlns:cc="http://creativecommons.org/ns#" xmlns:rdf="http://www.w3.org/1999/02/22-rdf-syntax-ns#">
   <cc:Work>
    <dc:type rdf:resource="http://purl.org/dc/dcmitype/StillImage"/>
    <dc:date>2025-04-14T19:22:57.667402</dc:date>
    <dc:format>image/svg+xml</dc:format>
    <dc:creator>
     <cc:Agent>
      <dc:title>Matplotlib v3.6.3, https://matplotlib.org/</dc:title>
     </cc:Agent>
    </dc:creator>
   </cc:Work>
  </rdf:RDF>
 </metadata>
 <defs>
  <style type="text/css">*{stroke-linejoin: round; stroke-linecap: butt}</style>
 </defs>
 <g id="figure_1">
  <g id="patch_1">
   <path d="M 0 425.204837 
L 326.016437 425.204837 
L 326.016437 0 
L 0 0 
z
" style="fill: #ffffff"/>
  </g>
  <g id="axes_1">
   <g id="patch_2">
    <path d="M 28.079688 364.968 
L 318.816438 364.968 
L 318.816438 74.23125 
L 28.079688 74.23125 
z
" style="fill: #ffffff"/>
   </g>
   <g id="patch_3">
    <path d="M 52.30775 98.459312 
L 52.30775 340.739937 
L 294.588375 340.739937 
z
" clip-path="url(#p1c3033fb26)" style="fill: #0000ff; opacity: 0.3; stroke: #0000ff; stroke-linejoin: miter"/>
   </g>
   <g id="patch_4">
    <path d="M 52.30775 98.459312 
L 294.588375 340.739937 
L 294.588375 98.459312 
z
" clip-path="url(#p1c3033fb26)" style="fill: #ff0000; opacity: 0.3; stroke: #ff0000; stroke-linejoin: miter"/>
   </g>
   <g id="matplotlib.axis_1">
    <g id="xtick_1">
     <g id="line2d_1">
      <path d="M 52.30775 364.968 
L 52.30775 74.23125 
" clip-path="url(#p1c3033fb26)" style="fill: none; stroke-dasharray: 2.96,1.28; stroke-dashoffset: 0; stroke: #b0b0b0; stroke-opacity: 0.7; stroke-width: 0.8"/>
     </g>
     <g id="line2d_2">
      <defs>
       <path id="ma1f679f658" d="M 0 0 
L 0 3.5 
" style="stroke: #000000; stroke-width: 0.8"/>
      </defs>
      <g>
       <use xlink:href="#ma1f679f658" x="52.30775" y="364.968" style="stroke: #000000; stroke-width: 0.8"/>
      </g>
     </g>
     <g id="text_1">
      <!-- 0.0 -->
      <g transform="translate(45.367906 379.927375) scale(0.1 -0.1)">
       <defs>
        <path id="NotoSansCJKjp-Regular-30" d="M 1779 -83 
C 2669 -83 3238 723 3238 2362 
C 3238 3987 2669 4774 1779 4774 
C 883 4774 320 3987 320 2362 
C 320 723 883 -83 1779 -83 
z
M 1779 390 
C 1248 390 883 986 883 2362 
C 883 3731 1248 4314 1779 4314 
C 2310 4314 2675 3731 2675 2362 
C 2675 986 2310 390 1779 390 
z
" transform="scale(0.015625)"/>
        <path id="NotoSansCJKjp-Regular-2e" d="M 890 -83 
C 1120 -83 1312 96 1312 358 
C 1312 627 1120 806 890 806 
C 653 806 467 627 467 358 
C 467 96 653 -83 890 -83 
z
" transform="scale(0.015625)"/>
       </defs>
       <use xlink:href="#NotoSansCJKjp-Regular-30"/>
       <use xlink:href="#NotoSansCJKjp-Regular-2e" x="55.499985"/>
       <use xlink:href="#NotoSansCJKjp-Regular-30" x="83.299973"/>
      </g>
     </g>
    </g>
    <g id="xtick_2">
     <g id="line2d_3">
      <path d="M 100.763875 364.968 
L 100.763875 74.23125 
" clip-path="url(#p1c3033fb26)" style="fill: none; stroke-dasharray: 2.96,1.28; stroke-dashoffset: 0; stroke: #b0b0b0; stroke-opacity: 0.7; stroke-width: 0.8"/>
     </g>
     <g id="line2d_4">
      <g>
       <use xlink:href="#ma1f679f658" x="100.763875" y="364.968" style="stroke: #000000; stroke-width: 0.8"/>
      </g>
     </g>
     <g id="text_2">
      <!-- 0.2 -->
      <g transform="translate(93.824031 379.927375) scale(0.1 -0.1)">
       <defs>
        <path id="NotoSansCJKjp-Regular-32" d="M 282 0 
L 3232 0 
L 3232 506 
L 1933 506 
C 1696 506 1408 480 1165 461 
C 2266 1504 3008 2458 3008 3398 
C 3008 4230 2477 4774 1638 4774 
C 1043 4774 634 4506 256 4090 
L 595 3757 
C 858 4070 1184 4301 1568 4301 
C 2150 4301 2432 3910 2432 3373 
C 2432 2566 1754 1632 282 346 
L 282 0 
z
" transform="scale(0.015625)"/>
       </defs>
       <use xlink:href="#NotoSansCJKjp-Regular-30"/>
       <use xlink:href="#NotoSansCJKjp-Regular-2e" x="55.499985"/>
       <use xlink:href="#NotoSansCJKjp-Regular-32" x="83.299973"/>
      </g>
     </g>
    </g>
    <g id="xtick_3">
     <g id="line2d_5">
      <path d="M 149.22 364.968 
L 149.22 74.23125 
" clip-path="url(#p1c3033fb26)" style="fill: none; stroke-dasharray: 2.96,1.28; stroke-dashoffset: 0; stroke: #b0b0b0; stroke-opacity: 0.7; stroke-width: 0.8"/>
     </g>
     <g id="line2d_6">
      <g>
       <use xlink:href="#ma1f679f658" x="149.22" y="364.968" style="stroke: #000000; stroke-width: 0.8"/>
      </g>
     </g>
     <g id="text_3">
      <!-- 0.4 -->
      <g transform="translate(142.280156 379.927375) scale(0.1 -0.1)">
       <defs>
        <path id="NotoSansCJKjp-Regular-34" d="M 2176 0 
L 2726 0 
L 2726 1293 
L 3354 1293 
L 3354 1760 
L 2726 1760 
L 2726 4691 
L 2080 4691 
L 128 1677 
L 128 1293 
L 2176 1293 
L 2176 0 
z
M 2176 1760 
L 736 1760 
L 1805 3360 
C 1939 3590 2067 3827 2182 4051 
L 2208 4051 
C 2195 3814 2176 3430 2176 3200 
L 2176 1760 
z
" transform="scale(0.015625)"/>
       </defs>
       <use xlink:href="#NotoSansCJKjp-Regular-30"/>
       <use xlink:href="#NotoSansCJKjp-Regular-2e" x="55.499985"/>
       <use xlink:href="#NotoSansCJKjp-Regular-34" x="83.299973"/>
      </g>
     </g>
    </g>
    <g id="xtick_4">
     <g id="line2d_7">
      <path d="M 197.676125 364.968 
L 197.676125 74.23125 
" clip-path="url(#p1c3033fb26)" style="fill: none; stroke-dasharray: 2.96,1.28; stroke-dashoffset: 0; stroke: #b0b0b0; stroke-opacity: 0.7; stroke-width: 0.8"/>
     </g>
     <g id="line2d_8">
      <g>
       <use xlink:href="#ma1f679f658" x="197.676125" y="364.968" style="stroke: #000000; stroke-width: 0.8"/>
      </g>
     </g>
     <g id="text_4">
      <!-- 0.6 -->
      <g transform="translate(190.736281 379.927375) scale(0.1 -0.1)">
       <defs>
        <path id="NotoSansCJKjp-Regular-36" d="M 1926 -83 
C 2656 -83 3277 531 3277 1440 
C 3277 2426 2765 2912 1971 2912 
C 1606 2912 1197 2701 909 2349 
C 934 3802 1466 4294 2118 4294 
C 2400 4294 2682 4154 2861 3936 
L 3194 4294 
C 2931 4576 2579 4774 2093 4774 
C 1184 4774 358 4077 358 2240 
C 358 691 1030 -83 1926 -83 
z
M 922 1882 
C 1229 2317 1587 2477 1875 2477 
C 2445 2477 2720 2074 2720 1440 
C 2720 800 2374 378 1926 378 
C 1338 378 986 909 922 1882 
z
" transform="scale(0.015625)"/>
       </defs>
       <use xlink:href="#NotoSansCJKjp-Regular-30"/>
       <use xlink:href="#NotoSansCJKjp-Regular-2e" x="55.499985"/>
       <use xlink:href="#NotoSansCJKjp-Regular-36" x="83.299973"/>
      </g>
     </g>
    </g>
    <g id="xtick_5">
     <g id="line2d_9">
      <path d="M 246.13225 364.968 
L 246.13225 74.23125 
" clip-path="url(#p1c3033fb26)" style="fill: none; stroke-dasharray: 2.96,1.28; stroke-dashoffset: 0; stroke: #b0b0b0; stroke-opacity: 0.7; stroke-width: 0.8"/>
     </g>
     <g id="line2d_10">
      <g>
       <use xlink:href="#ma1f679f658" x="246.13225" y="364.968" style="stroke: #000000; stroke-width: 0.8"/>
      </g>
     </g>
     <g id="text_5">
      <!-- 0.8 -->
      <g transform="translate(239.192406 379.927375) scale(0.1 -0.1)">
       <defs>
        <path id="NotoSansCJKjp-Regular-38" d="M 1792 -83 
C 2669 -83 3258 448 3258 1126 
C 3258 1773 2880 2125 2470 2362 
L 2470 2394 
C 2746 2611 3091 3034 3091 3526 
C 3091 4250 2605 4762 1805 4762 
C 1075 4762 518 4282 518 3571 
C 518 3078 813 2726 1152 2490 
L 1152 2464 
C 723 2234 294 1792 294 1165 
C 294 442 922 -83 1792 -83 
z
M 2112 2547 
C 1555 2765 1050 3014 1050 3571 
C 1050 4026 1363 4326 1798 4326 
C 2298 4326 2592 3962 2592 3494 
C 2592 3149 2426 2829 2112 2547 
z
M 1798 352 
C 1235 352 813 717 813 1216 
C 813 1664 1082 2035 1459 2278 
C 2125 2010 2701 1779 2701 1146 
C 2701 678 2342 352 1798 352 
z
" transform="scale(0.015625)"/>
       </defs>
       <use xlink:href="#NotoSansCJKjp-Regular-30"/>
       <use xlink:href="#NotoSansCJKjp-Regular-2e" x="55.499985"/>
       <use xlink:href="#NotoSansCJKjp-Regular-38" x="83.299973"/>
      </g>
     </g>
    </g>
    <g id="xtick_6">
     <g id="line2d_11">
      <path d="M 294.588375 364.968 
L 294.588375 74.23125 
" clip-path="url(#p1c3033fb26)" style="fill: none; stroke-dasharray: 2.96,1.28; stroke-dashoffset: 0; stroke: #b0b0b0; stroke-opacity: 0.7; stroke-width: 0.8"/>
     </g>
     <g id="line2d_12">
      <g>
       <use xlink:href="#ma1f679f658" x="294.588375" y="364.968" style="stroke: #000000; stroke-width: 0.8"/>
      </g>
     </g>
     <g id="text_6">
      <!-- 1.0 -->
      <g transform="translate(287.648531 379.927375) scale(0.1 -0.1)">
       <defs>
        <path id="NotoSansCJKjp-Regular-31" d="M 563 0 
L 3136 0 
L 3136 486 
L 2195 486 
L 2195 4691 
L 1747 4691 
C 1491 4544 1190 4435 774 4358 
L 774 3987 
L 1613 3987 
L 1613 486 
L 563 486 
L 563 0 
z
" transform="scale(0.015625)"/>
       </defs>
       <use xlink:href="#NotoSansCJKjp-Regular-31"/>
       <use xlink:href="#NotoSansCJKjp-Regular-2e" x="55.499985"/>
       <use xlink:href="#NotoSansCJKjp-Regular-30" x="83.299973"/>
      </g>
     </g>
    </g>
   </g>
   <g id="matplotlib.axis_2">
    <g id="ytick_1">
     <g id="line2d_13">
      <path d="M 28.079688 340.739937 
L 318.816438 340.739937 
" clip-path="url(#p1c3033fb26)" style="fill: none; stroke-dasharray: 2.96,1.28; stroke-dashoffset: 0; stroke: #b0b0b0; stroke-opacity: 0.7; stroke-width: 0.8"/>
     </g>
     <g id="line2d_14">
      <defs>
       <path id="m4abe2d0b0e" d="M 0 0 
L -3.5 0 
" style="stroke: #000000; stroke-width: 0.8"/>
      </defs>
      <g>
       <use xlink:href="#m4abe2d0b0e" x="28.079688" y="340.739937" style="stroke: #000000; stroke-width: 0.8"/>
      </g>
     </g>
     <g id="text_7">
      <!-- 0.0 -->
      <g transform="translate(7.2 344.719625) scale(0.1 -0.1)">
       <use xlink:href="#NotoSansCJKjp-Regular-30"/>
       <use xlink:href="#NotoSansCJKjp-Regular-2e" x="55.499985"/>
       <use xlink:href="#NotoSansCJKjp-Regular-30" x="83.299973"/>
      </g>
     </g>
    </g>
    <g id="ytick_2">
     <g id="line2d_15">
      <path d="M 28.079688 292.283812 
L 318.816438 292.283812 
" clip-path="url(#p1c3033fb26)" style="fill: none; stroke-dasharray: 2.96,1.28; stroke-dashoffset: 0; stroke: #b0b0b0; stroke-opacity: 0.7; stroke-width: 0.8"/>
     </g>
     <g id="line2d_16">
      <g>
       <use xlink:href="#m4abe2d0b0e" x="28.079688" y="292.283812" style="stroke: #000000; stroke-width: 0.8"/>
      </g>
     </g>
     <g id="text_8">
      <!-- 0.2 -->
      <g transform="translate(7.2 296.2635) scale(0.1 -0.1)">
       <use xlink:href="#NotoSansCJKjp-Regular-30"/>
       <use xlink:href="#NotoSansCJKjp-Regular-2e" x="55.499985"/>
       <use xlink:href="#NotoSansCJKjp-Regular-32" x="83.299973"/>
      </g>
     </g>
    </g>
    <g id="ytick_3">
     <g id="line2d_17">
      <path d="M 28.079688 243.827687 
L 318.816438 243.827687 
" clip-path="url(#p1c3033fb26)" style="fill: none; stroke-dasharray: 2.96,1.28; stroke-dashoffset: 0; stroke: #b0b0b0; stroke-opacity: 0.7; stroke-width: 0.8"/>
     </g>
     <g id="line2d_18">
      <g>
       <use xlink:href="#m4abe2d0b0e" x="28.079688" y="243.827687" style="stroke: #000000; stroke-width: 0.8"/>
      </g>
     </g>
     <g id="text_9">
      <!-- 0.4 -->
      <g transform="translate(7.2 247.807375) scale(0.1 -0.1)">
       <use xlink:href="#NotoSansCJKjp-Regular-30"/>
       <use xlink:href="#NotoSansCJKjp-Regular-2e" x="55.499985"/>
       <use xlink:href="#NotoSansCJKjp-Regular-34" x="83.299973"/>
      </g>
     </g>
    </g>
    <g id="ytick_4">
     <g id="line2d_19">
      <path d="M 28.079688 195.371562 
L 318.816438 195.371562 
" clip-path="url(#p1c3033fb26)" style="fill: none; stroke-dasharray: 2.96,1.28; stroke-dashoffset: 0; stroke: #b0b0b0; stroke-opacity: 0.7; stroke-width: 0.8"/>
     </g>
     <g id="line2d_20">
      <g>
       <use xlink:href="#m4abe2d0b0e" x="28.079688" y="195.371562" style="stroke: #000000; stroke-width: 0.8"/>
      </g>
     </g>
     <g id="text_10">
      <!-- 0.6 -->
      <g transform="translate(7.2 199.35125) scale(0.1 -0.1)">
       <use xlink:href="#NotoSansCJKjp-Regular-30"/>
       <use xlink:href="#NotoSansCJKjp-Regular-2e" x="55.499985"/>
       <use xlink:href="#NotoSansCJKjp-Regular-36" x="83.299973"/>
      </g>
     </g>
    </g>
    <g id="ytick_5">
     <g id="line2d_21">
      <path d="M 28.079688 146.915437 
L 318.816438 146.915437 
" clip-path="url(#p1c3033fb26)" style="fill: none; stroke-dasharray: 2.96,1.28; stroke-dashoffset: 0; stroke: #b0b0b0; stroke-opacity: 0.7; stroke-width: 0.8"/>
     </g>
     <g id="line2d_22">
      <g>
       <use xlink:href="#m4abe2d0b0e" x="28.079688" y="146.915437" style="stroke: #000000; stroke-width: 0.8"/>
      </g>
     </g>
     <g id="text_11">
      <!-- 0.8 -->
      <g transform="translate(7.2 150.895125) scale(0.1 -0.1)">
       <use xlink:href="#NotoSansCJKjp-Regular-30"/>
       <use xlink:href="#NotoSansCJKjp-Regular-2e" x="55.499985"/>
       <use xlink:href="#NotoSansCJKjp-Regular-38" x="83.299973"/>
      </g>
     </g>
    </g>
    <g id="ytick_6">
     <g id="line2d_23">
      <path d="M 28.079688 98.459312 
L 318.816438 98.459312 
" clip-path="url(#p1c3033fb26)" style="fill: none; stroke-dasharray: 2.96,1.28; stroke-dashoffset: 0; stroke: #b0b0b0; stroke-opacity: 0.7; stroke-width: 0.8"/>
     </g>
     <g id="line2d_24">
      <g>
       <use xlink:href="#m4abe2d0b0e" x="28.079688" y="98.459312" style="stroke: #000000; stroke-width: 0.8"/>
      </g>
     </g>
     <g id="text_12">
      <!-- 1.0 -->
      <g transform="translate(7.2 102.439) scale(0.1 -0.1)">
       <use xlink:href="#NotoSansCJKjp-Regular-31"/>
       <use xlink:href="#NotoSansCJKjp-Regular-2e" x="55.499985"/>
       <use xlink:href="#NotoSansCJKjp-Regular-30" x="83.299973"/>
      </g>
     </g>
    </g>
   </g>
   <g id="line2d_25">
    <path d="M 100.763875 292.283812 
L 173.448063 146.915437 
" clip-path="url(#p1c3033fb26)" style="fill: none; stroke: #000000; stroke-width: 3; stroke-linecap: square"/>
   </g>
   <g id="line2d_26">
    <path d="M 173.448063 146.915437 
L 246.13225 292.283812 
" clip-path="url(#p1c3033fb26)" style="fill: none; stroke: #000000; stroke-width: 3; stroke-linecap: square"/>
   </g>
   <g id="line2d_27">
    <path d="M 124.991938 219.599625 
L 221.904188 219.599625 
" clip-path="url(#p1c3033fb26)" style="fill: none; stroke: #000000; stroke-width: 3; stroke-linecap: square"/>
   </g>
   <g id="patch_5">
    <path d="M 28.079688 364.968 
L 28.079688 74.23125 
" style="fill: none; stroke: #000000; stroke-width: 0.8; stroke-linejoin: miter; stroke-linecap: square"/>
   </g>
   <g id="patch_6">
    <path d="M 318.816438 364.968 
L 318.816438 74.23125 
" style="fill: none; stroke: #000000; stroke-width: 0.8; stroke-linejoin: miter; stroke-linecap: square"/>
   </g>
   <g id="patch_7">
    <path d="M 28.079688 364.968 
L 318.816438 364.968 
" style="fill: none; stroke: #000000; stroke-width: 0.8; stroke-linejoin: miter; stroke-linecap: square"/>
   </g>
   <g id="patch_8">
    <path d="M 28.079688 74.23125 
L 318.816438 74.23125 
" style="fill: none; stroke: #000000; stroke-width: 0.8; stroke-linejoin: miter; stroke-linecap: square"/>
   </g>
   <g id="patch_9">
    <path d="M 52.30775 100.45934 
Q 52.30775 219.600547 52.30775 337.064703 
" style="fill: none; stroke: #0000ff; stroke-width: 1.5; stroke-linecap: round"/>
    <path d="M 54.30775 333.064703 
L 52.30775 337.064703 
L 50.30775 333.064703 
" style="fill: none; stroke: #0000ff; stroke-width: 1.5; stroke-linecap: round"/>
   </g>
   <g id="patch_10">
    <path d="M 54.307778 340.739937 
Q 173.448985 340.739937 290.913141 340.739937 
" style="fill: none; stroke: #0000ff; stroke-width: 1.5; stroke-linecap: round"/>
    <path d="M 286.913141 338.739937 
L 290.913141 340.739937 
L 286.913141 342.739937 
" style="fill: none; stroke: #0000ff; stroke-width: 1.5; stroke-linecap: round"/>
   </g>
   <g id="patch_11">
    <path d="M 293.174307 339.32587 
Q 173.447611 219.599174 54.906769 101.058332 
" style="fill: none; stroke: #0000ff; stroke-width: 1.5; stroke-linecap: round"/>
    <path d="M 56.320983 105.300972 
L 54.906769 101.058332 
L 59.14941 102.472545 
" style="fill: none; stroke: #0000ff; stroke-width: 1.5; stroke-linecap: round"/>
   </g>
   <g id="patch_12">
    <path d="M 53.721818 99.87338 
Q 173.448514 219.600076 291.989356 338.140918 
" style="fill: none; stroke: #ff0000; stroke-width: 1.5; stroke-linecap: round"/>
    <path d="M 290.575142 333.898278 
L 291.989356 338.140918 
L 287.746715 336.726705 
" style="fill: none; stroke: #ff0000; stroke-width: 1.5; stroke-linecap: round"/>
   </g>
   <g id="patch_13">
    <path d="M 294.588375 338.73991 
Q 294.588375 219.598703 294.588375 102.134547 
" style="fill: none; stroke: #ff0000; stroke-width: 1.5; stroke-linecap: round"/>
    <path d="M 292.588375 106.134547 
L 294.588375 102.134547 
L 296.588375 106.134547 
" style="fill: none; stroke: #ff0000; stroke-width: 1.5; stroke-linecap: round"/>
   </g>
   <g id="patch_14">
    <path d="M 292.588347 98.459313 
Q 173.44714 98.459313 55.982984 98.459313 
" style="fill: none; stroke: #ff0000; stroke-width: 1.5; stroke-linecap: round"/>
    <path d="M 59.982984 100.459313 
L 55.982984 98.459313 
L 59.982984 96.459313 
" style="fill: none; stroke: #ff0000; stroke-width: 1.5; stroke-linecap: round"/>
   </g>
   <g id="text_13">
    <!-- (0,0) -->
    <g style="fill: #0000ff" transform="translate(31.668688 106.418688) scale(0.1 -0.1)">
     <defs>
      <path id="NotoSansCJKjp-Regular-28" d="M 1530 -1254 
L 1888 -1094 
C 1338 -186 1075 902 1075 1990 
C 1075 3072 1338 4154 1888 5069 
L 1530 5235 
C 941 4275 589 3245 589 1990 
C 589 730 941 -301 1530 -1254 
z
" transform="scale(0.015625)"/>
      <path id="NotoSansCJKjp-Regular-2c" d="M 480 -1216 
C 1056 -973 1414 -493 1414 122 
C 1414 550 1229 806 922 806 
C 685 806 480 653 480 397 
C 480 141 678 -13 909 -13 
L 979 -6 
C 973 -390 736 -698 339 -870 
L 480 -1216 
z
" transform="scale(0.015625)"/>
      <path id="NotoSansCJKjp-Regular-29" d="M 634 -1254 
C 1222 -301 1574 730 1574 1990 
C 1574 3245 1222 4275 634 5235 
L 269 5069 
C 819 4154 1094 3072 1094 1990 
C 1094 902 819 -186 269 -1094 
L 634 -1254 
z
" transform="scale(0.015625)"/>
     </defs>
     <use xlink:href="#NotoSansCJKjp-Regular-28"/>
     <use xlink:href="#NotoSansCJKjp-Regular-30" x="33.799988"/>
     <use xlink:href="#NotoSansCJKjp-Regular-2c" x="89.299973"/>
     <use xlink:href="#NotoSansCJKjp-Regular-30" x="117.09996"/>
     <use xlink:href="#NotoSansCJKjp-Regular-29" x="172.599945"/>
    </g>
   </g>
   <g id="text_14">
    <!-- (0,1) -->
    <g style="fill: #0000ff" transform="translate(31.668688 348.699312) scale(0.1 -0.1)">
     <use xlink:href="#NotoSansCJKjp-Regular-28"/>
     <use xlink:href="#NotoSansCJKjp-Regular-30" x="33.799988"/>
     <use xlink:href="#NotoSansCJKjp-Regular-2c" x="89.299973"/>
     <use xlink:href="#NotoSansCJKjp-Regular-31" x="117.09996"/>
     <use xlink:href="#NotoSansCJKjp-Regular-29" x="172.599945"/>
    </g>
   </g>
   <g id="text_15">
    <!-- (1,1) -->
    <g style="fill: #0000ff" transform="translate(273.949313 348.699312) scale(0.1 -0.1)">
     <use xlink:href="#NotoSansCJKjp-Regular-28"/>
     <use xlink:href="#NotoSansCJKjp-Regular-31" x="33.799988"/>
     <use xlink:href="#NotoSansCJKjp-Regular-2c" x="89.299973"/>
     <use xlink:href="#NotoSansCJKjp-Regular-31" x="117.09996"/>
     <use xlink:href="#NotoSansCJKjp-Regular-29" x="172.599945"/>
    </g>
   </g>
   <g id="text_16">
    <!-- (0,0) -->
    <g style="fill: #ff0000" transform="translate(52.30775 96.168688) scale(0.1 -0.1)">
     <use xlink:href="#NotoSansCJKjp-Regular-28"/>
     <use xlink:href="#NotoSansCJKjp-Regular-30" x="33.799988"/>
     <use xlink:href="#NotoSansCJKjp-Regular-2c" x="89.299973"/>
     <use xlink:href="#NotoSansCJKjp-Regular-30" x="117.09996"/>
     <use xlink:href="#NotoSansCJKjp-Regular-29" x="172.599945"/>
    </g>
   </g>
   <g id="text_17">
    <!-- (1,1) -->
    <g style="fill: #ff0000" transform="translate(294.588375 338.449312) scale(0.1 -0.1)">
     <use xlink:href="#NotoSansCJKjp-Regular-28"/>
     <use xlink:href="#NotoSansCJKjp-Regular-31" x="33.799988"/>
     <use xlink:href="#NotoSansCJKjp-Regular-2c" x="89.299973"/>
     <use xlink:href="#NotoSansCJKjp-Regular-31" x="117.09996"/>
     <use xlink:href="#NotoSansCJKjp-Regular-29" x="172.599945"/>
    </g>
   </g>
   <g id="text_18">
    <!-- (1,0) -->
    <g style="fill: #ff0000" transform="translate(294.588375 96.168688) scale(0.1 -0.1)">
     <use xlink:href="#NotoSansCJKjp-Regular-28"/>
     <use xlink:href="#NotoSansCJKjp-Regular-31" x="33.799988"/>
     <use xlink:href="#NotoSansCJKjp-Regular-2c" x="89.299973"/>
     <use xlink:href="#NotoSansCJKjp-Regular-30" x="117.09996"/>
     <use xlink:href="#NotoSansCJKjp-Regular-29" x="172.599945"/>
    </g>
   </g>
   <g id="text_19">
    <!-- 字符纹理和三角形 - 字母"A" -->
    <g transform="translate(99.340563 68.23125) scale(0.12 -0.12)">
     <defs>
      <path id="NotoSansCJKjp-Regular-5b57" d="M 2950 2400 
L 2950 1920 
L 454 1920 
L 454 1459 
L 2950 1459 
L 2950 96 
C 2950 6 2918 -26 2803 -32 
C 2688 -38 2272 -32 1843 -19 
C 1926 -154 2016 -365 2054 -499 
C 2592 -499 2931 -493 3155 -422 
C 3386 -346 3462 -205 3462 83 
L 3462 1459 
L 5965 1459 
L 5965 1920 
L 3462 1920 
L 3462 2118 
C 4006 2426 4582 2880 4966 3309 
L 4653 3552 
L 4544 3526 
L 1491 3526 
L 1491 3085 
L 4096 3085 
C 3834 2842 3507 2586 3194 2400 
L 2950 2400 
z
M 512 4685 
L 512 3174 
L 986 3174 
L 986 4224 
L 5395 4224 
L 5395 3174 
L 5888 3174 
L 5888 4685 
L 3443 4685 
L 3443 5389 
L 2938 5389 
L 2938 4685 
L 512 4685 
z
" transform="scale(0.015625)"/>
      <path id="NotoSansCJKjp-Regular-7b26" d="M 2528 1773 
C 2810 1363 3168 813 3334 486 
L 3744 736 
C 3565 1050 3200 1581 2918 1978 
L 2528 1773 
z
M 4698 3462 
L 4698 2765 
L 2157 2765 
L 2157 2323 
L 4698 2323 
L 4698 102 
C 4698 -6 4659 -32 4531 -38 
C 4416 -45 3987 -45 3533 -32 
C 3603 -166 3674 -365 3699 -499 
C 4275 -499 4653 -493 4870 -422 
C 5088 -346 5165 -205 5165 96 
L 5165 2323 
L 6035 2323 
L 6035 2765 
L 5165 2765 
L 5165 3462 
L 4698 3462 
z
M 1664 3520 
C 1338 2822 806 2125 262 1670 
C 365 1574 531 1376 595 1280 
C 806 1466 1018 1690 1216 1939 
L 1216 -512 
L 1683 -512 
L 1683 2592 
C 1843 2848 1990 3104 2118 3366 
L 1664 3520 
z
M 1165 5395 
C 966 4755 627 4115 230 3699 
C 346 3642 544 3507 634 3430 
C 845 3680 1050 4000 1235 4352 
L 1568 4352 
C 1709 4058 1869 3706 1958 3488 
L 2387 3635 
C 2310 3814 2170 4096 2042 4352 
L 3040 4352 
L 3040 4762 
L 1427 4762 
C 1504 4934 1574 5114 1632 5286 
L 1165 5395 
z
M 3686 5395 
C 3494 4755 3142 4147 2720 3750 
C 2835 3686 3034 3552 3123 3475 
C 3347 3712 3565 4013 3750 4352 
L 4192 4352 
C 4371 4090 4570 3776 4659 3578 
L 5082 3750 
C 4998 3910 4851 4134 4698 4352 
L 5978 4352 
L 5978 4762 
L 3949 4762 
C 4019 4934 4083 5107 4141 5286 
L 3686 5395 
z
" transform="scale(0.015625)"/>
      <path id="NotoSansCJKjp-Regular-7eb9" d="M 288 365 
L 384 -90 
C 966 77 1741 294 2477 506 
L 2413 902 
C 1626 698 826 486 288 365 
z
M 384 2707 
C 480 2752 627 2790 1427 2899 
C 1139 2464 864 2112 742 1984 
C 557 1754 410 1606 275 1581 
C 326 1466 397 1254 416 1158 
C 550 1235 762 1299 2368 1619 
C 2362 1722 2362 1907 2374 2029 
L 1094 1798 
C 1568 2342 2029 3008 2419 3674 
L 2029 3904 
C 1926 3699 1811 3501 1690 3302 
L 851 3213 
C 1242 3770 1619 4480 1901 5165 
L 1446 5370 
C 1197 4602 736 3770 589 3552 
C 454 3334 346 3187 230 3162 
C 288 3034 365 2803 384 2707 
z
M 5050 3667 
C 4902 2733 4666 1990 4269 1408 
C 3853 2022 3584 2784 3411 3667 
L 5050 3667 
z
M 3635 5222 
C 3891 4883 4166 4422 4294 4128 
L 2438 4128 
L 2438 3667 
L 2950 3667 
C 3162 2605 3475 1722 3962 1024 
C 3507 525 2893 166 2074 -83 
C 2176 -186 2336 -384 2387 -486 
C 3174 -205 3782 166 4256 659 
C 4685 166 5235 -198 5933 -448 
C 6003 -320 6138 -134 6246 -38 
C 5542 179 4992 538 4563 1024 
C 5056 1690 5357 2547 5536 3667 
L 6131 3667 
L 6131 4128 
L 4346 4128 
L 4723 4288 
C 4595 4589 4301 5043 4038 5382 
L 3635 5222 
z
" transform="scale(0.015625)"/>
      <path id="NotoSansCJKjp-Regular-7406" d="M 3046 3456 
L 4026 3456 
L 4026 2630 
L 3046 2630 
L 3046 3456 
z
M 4442 3456 
L 5421 3456 
L 5421 2630 
L 4442 2630 
L 4442 3456 
z
M 3046 4659 
L 4026 4659 
L 4026 3846 
L 3046 3846 
L 3046 4659 
z
M 4442 4659 
L 5421 4659 
L 5421 3846 
L 4442 3846 
L 4442 4659 
z
M 2035 141 
L 2035 -301 
L 6189 -301 
L 6189 141 
L 4480 141 
L 4480 1024 
L 5971 1024 
L 5971 1459 
L 4480 1459 
L 4480 2214 
L 5882 2214 
L 5882 5082 
L 2605 5082 
L 2605 2214 
L 3987 2214 
L 3987 1459 
L 2528 1459 
L 2528 1024 
L 3987 1024 
L 3987 141 
L 2035 141 
z
M 224 640 
L 346 154 
C 909 339 1645 589 2336 819 
L 2253 1286 
L 1549 1050 
L 1549 2643 
L 2195 2643 
L 2195 3091 
L 1549 3091 
L 1549 4493 
L 2291 4493 
L 2291 4941 
L 294 4941 
L 294 4493 
L 1088 4493 
L 1088 3091 
L 358 3091 
L 358 2643 
L 1088 2643 
L 1088 902 
C 762 800 467 710 224 640 
z
" transform="scale(0.015625)"/>
      <path id="NotoSansCJKjp-Regular-548c" d="M 3398 4781 
L 3398 -224 
L 3866 -224 
L 3866 301 
L 5293 301 
L 5293 -179 
L 5779 -179 
L 5779 4781 
L 3398 4781 
z
M 3866 762 
L 3866 4320 
L 5293 4320 
L 5293 762 
L 3866 762 
z
M 2810 5318 
C 2246 5088 1235 4896 384 4781 
C 435 4672 499 4506 518 4397 
C 858 4435 1222 4486 1581 4550 
L 1581 3482 
L 320 3482 
L 320 3034 
L 1459 3034 
C 1165 2227 653 1350 166 858 
C 250 736 371 550 429 410 
C 845 851 1267 1587 1581 2342 
L 1581 -499 
L 2054 -499 
L 2054 2323 
C 2330 1958 2688 1472 2835 1229 
L 3130 1626 
C 2976 1824 2291 2630 2054 2874 
L 2054 3034 
L 3174 3034 
L 3174 3482 
L 2054 3482 
L 2054 4646 
C 2458 4730 2829 4826 3130 4941 
L 2810 5318 
z
" transform="scale(0.015625)"/>
      <path id="NotoSansCJKjp-Regular-4e09" d="M 787 4755 
L 787 4269 
L 5626 4269 
L 5626 4755 
L 787 4755 
z
M 1197 2662 
L 1197 2182 
L 5126 2182 
L 5126 2662 
L 1197 2662 
z
M 416 442 
L 416 -45 
L 5978 -45 
L 5978 442 
L 416 442 
z
" transform="scale(0.015625)"/>
      <path id="NotoSansCJKjp-Regular-89d2" d="M 1696 3482 
L 3110 3482 
L 3110 2630 
L 1696 2630 
L 1696 3482 
z
M 1696 3910 
L 1683 3910 
C 1888 4134 2074 4365 2234 4595 
L 3795 4595 
C 3667 4365 3501 4109 3341 3910 
L 1696 3910 
z
M 5101 3482 
L 5101 2630 
L 3571 2630 
L 3571 3482 
L 5101 3482 
z
M 2157 5395 
C 1837 4749 1222 3955 358 3373 
C 474 3302 627 3149 704 3034 
C 890 3168 1062 3309 1222 3450 
L 1222 2310 
C 1222 1498 1120 506 211 -198 
C 307 -269 480 -442 550 -544 
C 1062 -147 1357 371 1517 902 
L 5101 902 
L 5101 102 
C 5101 -19 5062 -58 4922 -64 
C 4774 -70 4275 -70 3757 -58 
C 3827 -186 3917 -390 3942 -525 
C 4595 -525 5011 -518 5254 -442 
C 5491 -365 5574 -218 5574 96 
L 5574 3910 
L 3872 3910 
C 4096 4192 4314 4518 4461 4813 
L 4134 5024 
L 4058 4998 
L 2502 4998 
L 2675 5299 
L 2157 5395 
z
M 1696 2214 
L 3110 2214 
L 3110 1325 
L 1613 1325 
C 1670 1632 1690 1933 1696 2214 
z
M 5101 2214 
L 5101 1325 
L 3571 1325 
L 3571 2214 
L 5101 2214 
z
" transform="scale(0.015625)"/>
      <path id="NotoSansCJKjp-Regular-5f62" d="M 5414 5274 
C 5018 4755 4288 4211 3674 3904 
C 3795 3814 3936 3674 4019 3565 
C 4672 3923 5389 4499 5862 5088 
L 5414 5274 
z
M 5600 3507 
C 5171 2950 4397 2374 3738 2042 
C 3859 1946 4000 1798 4083 1702 
C 4768 2080 5542 2701 6035 3328 
L 5600 3507 
z
M 5747 1779 
C 5267 979 4358 269 3405 -122 
C 3533 -224 3674 -390 3750 -506 
C 4736 -51 5651 710 6195 1600 
L 5747 1779 
z
M 2586 4531 
L 2586 2874 
L 1555 2874 
L 1555 4531 
L 2586 4531 
z
M 262 2874 
L 262 2426 
L 1094 2426 
C 1069 1472 928 531 237 -230 
C 352 -294 518 -448 595 -550 
C 1363 288 1523 1350 1549 2426 
L 2586 2426 
L 2586 -506 
L 3059 -506 
L 3059 2426 
L 3750 2426 
L 3750 2874 
L 3059 2874 
L 3059 4531 
L 3667 4531 
L 3667 4979 
L 371 4979 
L 371 4531 
L 1101 4531 
L 1101 2874 
L 262 2874 
z
" transform="scale(0.015625)"/>
      <path id="NotoSansCJKjp-Regular-20" transform="scale(0.015625)"/>
      <path id="NotoSansCJKjp-Regular-2d" d="M 294 1568 
L 1933 1568 
L 1933 2016 
L 294 2016 
L 294 1568 
z
" transform="scale(0.015625)"/>
      <path id="NotoSansCJKjp-Regular-6bcd" d="M 2515 4083 
C 2970 3853 3514 3501 3770 3245 
L 4064 3571 
C 3789 3827 3245 4166 2803 4371 
L 2515 4083 
z
M 2278 2080 
C 2778 1824 3354 1421 3629 1120 
L 3949 1440 
C 3661 1741 3072 2125 2579 2368 
L 2278 2080 
z
M 4934 4621 
L 4864 3059 
L 1677 3059 
L 1894 4621 
L 4934 4621 
z
M 1453 5062 
C 1389 4461 1299 3757 1197 3059 
L 243 3059 
L 243 2605 
L 1126 2605 
C 986 1677 832 787 698 141 
L 1203 96 
L 1286 557 
L 4621 557 
C 4563 275 4499 109 4422 26 
C 4352 -70 4269 -96 4147 -96 
C 3994 -96 3667 -90 3290 -58 
C 3360 -179 3411 -371 3418 -499 
C 3770 -512 4128 -518 4346 -499 
C 4570 -474 4717 -416 4864 -211 
C 4966 -83 5050 147 5120 557 
L 5997 557 
L 5997 1005 
L 5184 1005 
C 5235 1408 5280 1933 5318 2605 
L 6163 2605 
L 6163 3059 
L 5344 3059 
L 5421 4794 
C 5427 4864 5434 5062 5434 5062 
L 1453 5062 
z
M 4698 1005 
L 1363 1005 
C 1446 1491 1530 2042 1613 2605 
L 4838 2605 
C 4794 1920 4749 1395 4698 1005 
z
" transform="scale(0.015625)"/>
      <path id="NotoSansCJKjp-Regular-22" d="M 704 3091 
L 1069 3091 
L 1178 4282 
L 1190 4934 
L 576 4934 
L 589 4282 
L 704 3091 
z
M 1965 3091 
L 2317 3091 
L 2438 4282 
L 2451 4934 
L 1830 4934 
L 1843 4282 
L 1965 3091 
z
" transform="scale(0.015625)"/>
      <path id="NotoSansCJKjp-Regular-41" d="M 26 0 
L 621 0 
L 1075 1434 
L 2790 1434 
L 3238 0 
L 3866 0 
L 2272 4691 
L 1613 4691 
L 26 0 
z
M 1222 1901 
L 1453 2624 
C 1619 3155 1773 3661 1920 4211 
L 1946 4211 
C 2099 3667 2246 3155 2419 2624 
L 2643 1901 
L 1222 1901 
z
" transform="scale(0.015625)"/>
     </defs>
     <use xlink:href="#NotoSansCJKjp-Regular-5b57"/>
     <use xlink:href="#NotoSansCJKjp-Regular-7b26" x="99.999985"/>
     <use xlink:href="#NotoSansCJKjp-Regular-7eb9" x="199.999969"/>
     <use xlink:href="#NotoSansCJKjp-Regular-7406" x="299.999954"/>
     <use xlink:href="#NotoSansCJKjp-Regular-548c" x="399.999939"/>
     <use xlink:href="#NotoSansCJKjp-Regular-4e09" x="499.999924"/>
     <use xlink:href="#NotoSansCJKjp-Regular-89d2" x="599.999908"/>
     <use xlink:href="#NotoSansCJKjp-Regular-5f62" x="699.999893"/>
     <use xlink:href="#NotoSansCJKjp-Regular-20" x="799.999878"/>
     <use xlink:href="#NotoSansCJKjp-Regular-2d" x="822.399872"/>
     <use xlink:href="#NotoSansCJKjp-Regular-20" x="857.099869"/>
     <use xlink:href="#NotoSansCJKjp-Regular-5b57" x="879.499863"/>
     <use xlink:href="#NotoSansCJKjp-Regular-6bcd" x="979.499847"/>
     <use xlink:href="#NotoSansCJKjp-Regular-22" x="1079.499832"/>
     <use xlink:href="#NotoSansCJKjp-Regular-41" x="1126.899826"/>
     <use xlink:href="#NotoSansCJKjp-Regular-22" x="1187.699814"/>
    </g>
   </g>
   <g id="legend_1">
    <g id="patch_15">
     <path d="M 138.55275 418.004837 
L 208.343375 418.004837 
Q 210.343375 418.004837 210.343375 416.004837 
L 210.343375 386.504837 
Q 210.343375 384.504837 208.343375 384.504837 
L 138.55275 384.504837 
Q 136.55275 384.504837 136.55275 386.504837 
L 136.55275 416.004837 
Q 136.55275 418.004837 138.55275 418.004837 
z
" style="fill: #ffffff; opacity: 0.8; stroke: #cccccc; stroke-linejoin: miter"/>
    </g>
    <g id="patch_16">
     <path d="M 140.55275 396.464212 
L 160.55275 396.464212 
L 160.55275 389.464212 
L 140.55275 389.464212 
z
" style="fill: #0000ff; opacity: 0.3; stroke: #0000ff; stroke-linejoin: miter"/>
    </g>
    <g id="text_20">
     <!-- 三角形 1 -->
     <g transform="translate(168.55275 396.464212) scale(0.1 -0.1)">
      <use xlink:href="#NotoSansCJKjp-Regular-4e09"/>
      <use xlink:href="#NotoSansCJKjp-Regular-89d2" x="99.999985"/>
      <use xlink:href="#NotoSansCJKjp-Regular-5f62" x="199.999969"/>
      <use xlink:href="#NotoSansCJKjp-Regular-20" x="299.999954"/>
      <use xlink:href="#NotoSansCJKjp-Regular-31" x="322.399948"/>
     </g>
    </g>
    <g id="patch_17">
     <path d="M 140.55275 411.714212 
L 160.55275 411.714212 
L 160.55275 404.714212 
L 140.55275 404.714212 
z
" style="fill: #ff0000; opacity: 0.3; stroke: #ff0000; stroke-linejoin: miter"/>
    </g>
    <g id="text_21">
     <!-- 三角形 2 -->
     <g transform="translate(168.55275 411.714212) scale(0.1 -0.1)">
      <use xlink:href="#NotoSansCJKjp-Regular-4e09"/>
      <use xlink:href="#NotoSansCJKjp-Regular-89d2" x="99.999985"/>
      <use xlink:href="#NotoSansCJKjp-Regular-5f62" x="199.999969"/>
      <use xlink:href="#NotoSansCJKjp-Regular-20" x="299.999954"/>
      <use xlink:href="#NotoSansCJKjp-Regular-32" x="322.399948"/>
     </g>
    </g>
   </g>
  </g>
  <g id="text_22">
   <!-- OpenGL 文本渲染示意图 -->
   <g transform="translate(85.590563 20.655) scale(0.16 -0.16)">
    <defs>
     <path id="NotoSansCJKjp-Regular-4f" d="M 2374 -83 
C 3552 -83 4378 858 4378 2362 
C 4378 3866 3552 4774 2374 4774 
C 1197 4774 371 3866 371 2362 
C 371 858 1197 -83 2374 -83 
z
M 2374 435 
C 1530 435 979 1190 979 2362 
C 979 3533 1530 4256 2374 4256 
C 3219 4256 3770 3533 3770 2362 
C 3770 1190 3219 435 2374 435 
z
" transform="scale(0.015625)"/>
     <path id="NotoSansCJKjp-Regular-70" d="M 589 -1466 
L 1178 -1466 
L 1178 -288 
L 1158 320 
C 1472 58 1805 -83 2118 -83 
C 2912 -83 3629 602 3629 1792 
C 3629 2867 3142 3565 2246 3565 
C 1843 3565 1453 3334 1139 3072 
L 1126 3072 
L 1069 3475 
L 589 3475 
L 589 -1466 
z
M 2022 410 
C 1792 410 1485 499 1178 768 
L 1178 2598 
C 1510 2906 1811 3072 2099 3072 
C 2765 3072 3021 2560 3021 1786 
C 3021 928 2598 410 2022 410 
z
" transform="scale(0.015625)"/>
     <path id="NotoSansCJKjp-Regular-65" d="M 1997 -83 
C 2464 -83 2835 70 3136 269 
L 2931 659 
C 2669 486 2400 384 2061 384 
C 1402 384 947 858 909 1600 
L 3251 1600 
C 3264 1690 3277 1805 3277 1933 
C 3277 2925 2778 3565 1888 3565 
C 1094 3565 333 2867 333 1734 
C 333 589 1069 -83 1997 -83 
z
M 902 2016 
C 973 2707 1408 3098 1901 3098 
C 2445 3098 2765 2720 2765 2016 
L 902 2016 
z
" transform="scale(0.015625)"/>
     <path id="NotoSansCJKjp-Regular-6e" d="M 589 0 
L 1178 0 
L 1178 2522 
C 1523 2874 1766 3053 2125 3053 
C 2586 3053 2784 2778 2784 2125 
L 2784 0 
L 3366 0 
L 3366 2202 
C 3366 3085 3034 3565 2304 3565 
C 1830 3565 1466 3302 1139 2970 
L 1126 2970 
L 1069 3475 
L 589 3475 
L 589 0 
z
" transform="scale(0.015625)"/>
     <path id="NotoSansCJKjp-Regular-47" d="M 2490 -83 
C 3117 -83 3635 147 3936 461 
L 3936 2432 
L 2394 2432 
L 2394 1939 
L 3392 1939 
L 3392 710 
C 3206 538 2880 435 2547 435 
C 1542 435 979 1178 979 2362 
C 979 3533 1594 4256 2541 4256 
C 3008 4256 3315 4058 3552 3814 
L 3872 4198 
C 3603 4480 3174 4774 2522 4774 
C 1280 4774 371 3859 371 2342 
C 371 819 1254 -83 2490 -83 
z
" transform="scale(0.015625)"/>
     <path id="NotoSansCJKjp-Regular-4c" d="M 646 0 
L 3290 0 
L 3290 506 
L 1235 506 
L 1235 4691 
L 646 4691 
L 646 0 
z
" transform="scale(0.015625)"/>
     <path id="NotoSansCJKjp-Regular-6587" d="M 2944 5376 
L 2944 4288 
L 320 4288 
L 320 3821 
L 1274 3821 
C 1638 2797 2138 1920 2803 1216 
C 2118 653 1274 237 250 -58 
C 346 -173 499 -403 557 -518 
C 1594 -186 2458 262 3162 864 
C 3878 230 4755 -237 5824 -512 
C 5907 -378 6061 -154 6176 -45 
C 5133 198 4262 640 3558 1229 
C 4230 1914 4742 2758 5120 3821 
L 6106 3821 
L 6106 4288 
L 3437 4288 
L 3437 5376 
L 2944 5376 
z
M 3187 1574 
C 2579 2195 2118 2950 1798 3821 
L 4563 3821 
C 4230 2912 3782 2170 3187 1574 
z
" transform="scale(0.015625)"/>
     <path id="NotoSansCJKjp-Regular-672c" d="M 2944 5370 
L 2944 4026 
L 416 4026 
L 416 3539 
L 2643 3539 
C 2099 2438 1171 1402 198 896 
C 307 800 461 621 544 499 
C 1478 1050 2355 2016 2944 3130 
L 2944 1171 
L 1690 1171 
L 1690 685 
L 2944 685 
L 2944 -512 
L 3450 -512 
L 3450 685 
L 4672 685 
L 4672 1171 
L 3450 1171 
L 3450 3123 
C 4026 2016 4896 1043 5856 512 
C 5939 646 6106 838 6221 934 
C 5210 1427 4288 2438 3744 3539 
L 5997 3539 
L 5997 4026 
L 3450 4026 
L 3450 5370 
L 2944 5370 
z
" transform="scale(0.015625)"/>
     <path id="NotoSansCJKjp-Regular-6e32" d="M 563 4992 
C 954 4794 1414 4474 1638 4230 
L 1933 4608 
C 1702 4832 1229 5133 845 5318 
L 563 4992 
z
M 237 3238 
C 640 3046 1126 2739 1363 2515 
L 1645 2906 
C 1402 3123 909 3411 506 3584 
L 237 3238 
z
M 429 -122 
L 851 -416 
C 1190 179 1600 986 1901 1664 
L 1530 1952 
C 1197 1222 749 378 429 -122 
z
M 2637 3744 
L 2637 3341 
L 5376 3341 
L 5376 3744 
L 2637 3744 
z
M 1882 77 
L 1882 -365 
L 6150 -365 
L 6150 77 
L 1882 77 
z
M 3002 1549 
L 5018 1549 
L 5018 947 
L 3002 947 
L 3002 1549 
z
M 3002 2502 
L 5018 2502 
L 5018 1901 
L 3002 1901 
L 3002 2502 
z
M 2560 2874 
L 2560 570 
L 5478 570 
L 5478 2874 
L 2560 2874 
z
M 3757 5376 
L 3757 4691 
L 2054 4691 
L 2054 3610 
L 2496 3610 
L 2496 4269 
L 5549 4269 
L 5549 3610 
L 6003 3610 
L 6003 4691 
L 4230 4691 
L 4230 5376 
L 3757 5376 
z
" transform="scale(0.015625)"/>
     <path id="NotoSansCJKjp-Regular-67d3" d="M 282 4090 
C 653 3968 1126 3770 1376 3622 
L 1587 3987 
C 1331 4128 858 4314 493 4416 
L 282 4090 
z
M 723 5011 
C 1094 4883 1574 4678 1818 4525 
L 2022 4883 
C 1773 5030 1286 5222 915 5325 
L 723 5011 
z
M 448 2451 
L 794 2125 
C 1152 2483 1549 2918 1894 3309 
L 1606 3610 
C 1216 3181 768 2726 448 2451 
z
M 2957 2541 
L 2957 1856 
L 365 1856 
L 365 1427 
L 2528 1427 
C 1965 806 1062 256 230 -13 
C 339 -109 480 -288 550 -410 
C 1421 -77 2362 563 2957 1293 
L 2957 -506 
L 3443 -506 
L 3443 1261 
C 4038 544 4954 -58 5850 -371 
C 5920 -243 6061 -58 6170 38 
C 5299 294 4403 813 3853 1427 
L 6048 1427 
L 6048 1856 
L 3443 1856 
L 3443 2541 
L 2957 2541 
z
M 3296 5376 
C 3290 5120 3277 4883 3251 4666 
L 2202 4666 
L 2202 4230 
L 3181 4230 
C 2989 3398 2560 2886 1722 2573 
C 1824 2496 1997 2298 2054 2208 
C 2970 2618 3450 3226 3661 4230 
L 4531 4230 
L 4531 3085 
C 4531 2707 4570 2592 4672 2509 
C 4781 2426 4941 2394 5082 2394 
C 5158 2394 5370 2394 5466 2394 
C 5581 2394 5734 2413 5824 2451 
C 5920 2496 5997 2566 6042 2694 
C 6080 2810 6099 3130 6112 3411 
C 5978 3456 5792 3546 5702 3635 
C 5696 3328 5690 3098 5670 2995 
C 5658 2893 5619 2848 5587 2829 
C 5549 2803 5478 2797 5414 2797 
C 5344 2797 5235 2797 5178 2797 
C 5120 2797 5075 2803 5043 2822 
C 5011 2848 4998 2925 4998 3059 
L 4998 4666 
L 3731 4666 
C 3757 4890 3776 5126 3782 5382 
L 3296 5376 
z
" transform="scale(0.015625)"/>
     <path id="NotoSansCJKjp-Regular-793a" d="M 1498 2246 
C 1222 1523 749 813 224 358 
C 346 294 563 154 666 70 
C 1171 563 1677 1325 1990 2112 
L 1498 2246 
z
M 4378 2048 
C 4838 1434 5325 602 5498 64 
L 5978 282 
C 5786 826 5286 1632 4819 2234 
L 4378 2048 
z
M 954 4902 
L 954 4429 
L 5459 4429 
L 5459 4902 
L 954 4902 
z
M 384 3347 
L 384 2874 
L 2950 2874 
L 2950 122 
C 2950 19 2912 -6 2797 -13 
C 2675 -19 2253 -19 1818 0 
C 1894 -147 1971 -358 1990 -506 
C 2560 -506 2938 -499 3162 -422 
C 3392 -339 3469 -198 3469 115 
L 3469 2874 
L 6022 2874 
L 6022 3347 
L 384 3347 
z
" transform="scale(0.015625)"/>
     <path id="NotoSansCJKjp-Regular-610f" d="M 1645 1651 
L 1645 2080 
L 4787 2080 
L 4787 1651 
L 1645 1651 
z
M 1645 2400 
L 1645 2829 
L 4787 2829 
L 4787 2400 
L 1645 2400 
z
M 1581 851 
L 1178 998 
C 1018 576 717 141 269 -109 
L 646 -365 
C 1120 -83 1395 384 1581 851 
z
M 5005 1056 
L 4634 832 
C 5069 506 5549 19 5754 -326 
L 6150 -77 
C 5926 269 5434 736 5005 1056 
z
M 2374 128 
L 2374 954 
L 1907 954 
L 1907 128 
C 1907 -333 2074 -454 2726 -454 
C 2861 -454 3795 -454 3936 -454 
C 4461 -454 4602 -288 4659 435 
C 4531 461 4346 525 4237 595 
C 4211 26 4166 -51 3898 -51 
C 3686 -51 2912 -51 2765 -51 
C 2432 -51 2374 -26 2374 128 
z
M 5261 3155 
L 1190 3155 
L 1190 1318 
L 2842 1318 
L 2586 1075 
C 2950 870 3398 570 3622 371 
L 3904 659 
C 3674 858 3226 1139 2861 1318 
L 5261 1318 
L 5261 3155 
z
M 4051 3872 
L 2272 3872 
L 2464 3923 
C 2419 4096 2310 4346 2189 4557 
L 4218 4557 
C 4141 4352 4006 4090 3904 3910 
L 4051 3872 
z
M 5638 4954 
L 3430 4954 
L 3430 5376 
L 2950 5376 
L 2950 4954 
L 755 4954 
L 755 4557 
L 1914 4557 
L 1722 4512 
C 1837 4320 1939 4064 1984 3872 
L 467 3872 
L 467 3482 
L 5971 3482 
L 5971 3872 
L 4371 3872 
C 4480 4051 4614 4275 4736 4506 
L 4518 4557 
L 5638 4557 
L 5638 4954 
z
" transform="scale(0.015625)"/>
     <path id="NotoSansCJKjp-Regular-56fe" d="M 2400 1786 
C 2912 1677 3565 1453 3923 1274 
L 4122 1600 
C 3763 1766 3117 1978 2605 2080 
L 2400 1786 
z
M 1760 973 
C 2643 864 3750 608 4365 390 
L 4576 749 
C 3955 954 2848 1203 1984 1299 
L 1760 973 
z
M 538 5094 
L 538 -512 
L 998 -512 
L 998 -243 
L 5389 -243 
L 5389 -512 
L 5869 -512 
L 5869 5094 
L 538 5094 
z
M 998 186 
L 998 4659 
L 5389 4659 
L 5389 186 
L 998 186 
z
M 2650 4531 
C 2330 4006 1779 3507 1229 3181 
C 1331 3117 1498 2970 1568 2893 
C 1760 3021 1958 3174 2157 3347 
C 2349 3142 2586 2950 2842 2778 
C 2298 2522 1683 2330 1114 2214 
C 1197 2125 1299 1939 1344 1824 
C 1971 1971 2643 2208 3251 2534 
C 3782 2246 4390 2029 4998 1894 
C 5056 2010 5178 2176 5267 2259 
C 4704 2362 4141 2534 3642 2765 
C 4122 3078 4525 3443 4794 3878 
L 4518 4038 
L 4448 4019 
L 2790 4019 
C 2886 4141 2976 4262 3053 4390 
L 2650 4531 
z
M 2419 3603 
L 2464 3648 
L 4122 3648 
C 3891 3398 3584 3174 3238 2976 
C 2912 3162 2630 3373 2419 3603 
z
" transform="scale(0.015625)"/>
    </defs>
    <use xlink:href="#NotoSansCJKjp-Regular-4f"/>
    <use xlink:href="#NotoSansCJKjp-Regular-70" x="74.199982"/>
    <use xlink:href="#NotoSansCJKjp-Regular-65" x="136.199966"/>
    <use xlink:href="#NotoSansCJKjp-Regular-6e" x="191.59996"/>
    <use xlink:href="#NotoSansCJKjp-Regular-47" x="252.599945"/>
    <use xlink:href="#NotoSansCJKjp-Regular-4c" x="321.499939"/>
    <use xlink:href="#NotoSansCJKjp-Regular-20" x="375.799927"/>
    <use xlink:href="#NotoSansCJKjp-Regular-6587" x="398.199921"/>
    <use xlink:href="#NotoSansCJKjp-Regular-672c" x="498.199905"/>
    <use xlink:href="#NotoSansCJKjp-Regular-6e32" x="598.19989"/>
    <use xlink:href="#NotoSansCJKjp-Regular-67d3" x="698.199875"/>
    <use xlink:href="#NotoSansCJKjp-Regular-793a" x="798.19986"/>
    <use xlink:href="#NotoSansCJKjp-Regular-610f" x="898.199844"/>
    <use xlink:href="#NotoSansCJKjp-Regular-56fe" x="998.199829"/>
   </g>
  </g>
 </g>
 <defs>
  <clipPath id="p1c3033fb26">
   <rect x="28.079688" y="74.23125" width="290.73675" height="290.73675"/>
  </clipPath>
 </defs>
</svg>
